<svg xmlns="http://www.w3.org/2000/svg" xmlns:xlink="http://www.w3.org/1999/xlink" width="500" zoomAndPan="magnify" viewBox="0 0 375 374.999991" height="500" preserveAspectRatio="xMidYMid meet" version="1.0"><defs><filter x="0%" y="0%" width="100%" height="100%" id="id1"><feColorMatrix values="0 0 0 0 1 0 0 0 0 1 0 0 0 0 1 0 0 0 1 0" color-interpolation-filters="sRGB"/></filter><mask id="id2"><g filter="url(#id1)"><rect x="-37.5" width="450" fill="#000000" y="-37.499999" height="449.999989" fill-opacity="0.349"/></g></mask><clipPath id="id3"><rect x="0" width="375" y="0" height="375"/></clipPath><clipPath id="id4"><path d="M 37.5 51.683594 L 309 51.683594 L 309 323 L 37.5 323 Z M 37.5 51.683594 " clip-rule="nonzero"/></clipPath></defs><g mask="url(#id2)"><g transform="matrix(1, 0, 0, 1, 0, 0)"><g clip-path="url(#id3)"><path fill="#a359a0" d="M 187.5 0 C 83.945312 0 0 83.945312 0 187.5 C 0 291.054688 83.945312 375 187.5 375 C 291.054688 375 375 291.054688 375 187.5 C 375 83.945312 291.054688 0 187.5 0 " fill-opacity="1" fill-rule="nonzero"/></g></g></g><g clip-path="url(#id4)"><path fill="#49326b" d="M 220.171875 226.660156 L 306.773438 313.261719 C 308.914062 315.402344 308.914062 318.839844 306.773438 320.980469 C 304.65625 323.097656 301.21875 323.097656 299.078125 320.980469 L 212.476562 234.355469 C 193.914062 251.117188 169.285156 261.316406 142.304688 261.316406 C 84.417969 261.316406 37.5 214.371094 37.5 156.511719 C 37.5 98.601562 84.417969 51.683594 142.304688 51.683594 C 200.1875 51.683594 247.132812 98.601562 247.132812 156.511719 C 247.132812 183.46875 236.9375 208.097656 220.171875 226.660156 Z M 142.304688 250.421875 C 194.203125 250.421875 236.238281 208.382812 236.238281 156.511719 C 236.238281 104.613281 194.203125 62.578125 142.304688 62.578125 C 90.429688 62.578125 48.394531 104.613281 48.394531 156.511719 C 48.394531 208.382812 90.429688 250.421875 142.304688 250.421875 " fill-opacity="1" fill-rule="nonzero"/></g><path fill="#49326b" d="M 143.675781 187.800781 C 125.636719 187.800781 111.015625 173.175781 111.015625 155.140625 C 111.015625 137.082031 125.636719 122.457031 143.675781 122.457031 C 161.710938 122.457031 176.332031 137.082031 176.332031 155.140625 C 176.332031 173.175781 161.710938 187.800781 143.675781 187.800781 Z M 143.675781 176.929688 C 155.699219 176.929688 165.464844 167.164062 165.464844 155.140625 C 165.464844 143.117188 155.699219 133.351562 143.675781 133.351562 C 131.652344 133.351562 121.886719 143.117188 121.886719 155.140625 C 121.886719 167.164062 131.652344 176.929688 143.675781 176.929688 " fill-opacity="1" fill-rule="nonzero"/><path fill="#49326b" d="M 216.6875 161.03125 C 217.9375 163.773438 216.734375 166.996094 213.992188 168.246094 C 211.277344 169.496094 208.054688 168.320312 206.777344 165.578125 C 204.011719 159.542969 196.171875 150.28125 186.601562 143.070312 C 173.929688 133.472656 159.355469 127.917969 143.675781 127.917969 C 127.996094 127.917969 113.421875 133.472656 100.746094 143.070312 C 91.175781 150.28125 83.335938 159.542969 80.570312 165.578125 C 79.320312 168.320312 76.074219 169.496094 73.355469 168.246094 C 70.613281 166.996094 69.414062 163.773438 70.664062 161.03125 C 74.222656 153.289062 83.242188 142.636719 94.183594 134.363281 C 108.636719 123.445312 125.445312 117.023438 143.675781 117.023438 C 161.902344 117.023438 178.714844 123.445312 193.167969 134.363281 C 204.109375 142.636719 213.128906 153.289062 216.6875 161.03125 " fill-opacity="1" fill-rule="nonzero"/></svg>